# xmcd
#
# Track frame offsets:
#	150
#	21550
#	40302
#	53770
#	70842
#	91177
#	105100
#	121407
#	145850
#	164682
#	181480
#	202905
#	221877
#	241815
#
# Disc length: 3523 seconds
#
# Revision: 1
# Processed by: cddbd v1.5.1PL0 Copyright (c) Steve Scherf et al.
# Submitted via: CDex 1.50Beta5
#
DISCID=c40dc10e
DTITLE=伍代夏子 - 夏子の路〜伍代夏子10周年記念アルバム〜 Disc 2
DYEAR=1996
DGENRE=World
TTITLE0=川の流れのように
TTITLE1=越後獅子の歌
TTITLE2=港町十三番地
TTITLE3=哀愁波止場
TTITLE4=ひばりの佐渡情話
TTITLE5=車屋さん
TTITLE6=お祭りマンボ
TTITLE7=悲しい酒
TTITLE8=ある女の詩
TTITLE9=おまえに惚れた
TTITLE10=しのぶ
TTITLE11=裏町酒場
TTITLE12=みだれ髪
TTITLE13=愛燦燦
EXTD=
EXTT0=
EXTT1=
EXTT2=
EXTT3=
EXTT4=
EXTT5=
EXTT6=
EXTT7=
EXTT8=
EXTT9=
EXTT10=
EXTT11=
EXTT12=
EXTT13=
PLAYORDER=
